{"title":"Wild Target (2010) BluRay 720p x264-SPC release","uid":6040484,"size":2201157542,"categoryP":"video","categoryS":"hd___movies","magnet":"?xt=urn:btih:19f44f4275412d28b5c8f51bec0fb6f06b6e7a45&amp;dn=Wild+Target+%282010%29+BluRay+720p+x264-SPC+release+&amp;tr=udp%3A%2F%2Ftracker.openbittorrent.com%3A80&amp;tr=udp%3A%2F%2Fopen.demonii.com%3A1337&amp;tr=udp%3A%2F%2Ftracker.coppersurfer.tk%3A6969&amp;tr=udp%3A%2F%2Fexodus.desync.com%3A6969","seeders":0,"leechers":0,"uploader":null,"files":2,"time":1292372284,"description":"Format : Matroska\nFile size : 2.05 GiB\nDuration : 1h 37mn\nOverall bit rate : 3 000 Kbps\nEncoded date : UTC 2010-10-26 02:46:57\n\nVideo #1\nID : 1\nFormat : AVC\nFormat/Info : Advanced Video Codec\nFormat profile : &lt;a class=&quot;__cf_email__&quot; href=&quot;/cdn-cgi/l/email-protection&quot; data-cfemail=&quot;93dbfaf4fbd3dfa7bda2&quot;&gt;[email&amp;#160;protected]&lt;/a&gt;&lt;script cf-hash='f9e31' type=&quot;text/javascript&quot;&gt;\n/* &lt;![CDATA[ */!function(){try{var t=&quot;currentScript&quot;in document?document.currentScript:function(){for(var t=document.getElementsByTagName(&quot;script&quot;),e=t.length;e--;)if(t[e].getAttribute(&quot;cf-hash&quot;))return t[e]}();if(t&amp;&amp;t.previousSibling){var e,r,n,i,c=t.previousSibling,a=c.getAttribute(&quot;data-cfemail&quot;);if(a){for(e=&quot;&quot;,r=parseInt(a.substr(0,2),16),n=2;a.length-n;n+=2)i=parseInt(a.substr(n,2),16)^r,e+=String.fromCharCode(i);e=document.createTextNode(e),c.parentNode.replaceChild(e,c)}}}catch(u){}}();/* ]]&gt; */&lt;/script&gt;\nFormat settings, CABAC : Yes\nFormat settings, ReFrames : 4 frames\nMuxing mode : Container profile=&lt;a class=&quot;__cf_email__&quot; href=&quot;/cdn-cgi/l/email-protection&quot; data-cfemail=&quot;b4e1dadfdadbc3daf4809a85&quot;&gt;[email&amp;#160;protected]&lt;/a&gt;&lt;script cf-hash='f9e31' type=&quot;text/javascript&quot;&gt;\n/* &lt;![CDATA[ */!function(){try{var t=&quot;currentScript&quot;in document?document.currentScript:function(){for(var t=document.getElementsByTagName(&quot;script&quot;),e=t.length;e--;)if(t[e].getAttribute(&quot;cf-hash&quot;))return t[e]}();if(t&amp;&amp;t.previousSibling){var e,r,n,i,c=t.previousSibling,a=c.getAttribute(&quot;data-cfemail&quot;);if(a){for(e=&quot;&quot;,r=parseInt(a.substr(0,2),16),n=2;a.length-n;n+=2)i=parseInt(a.substr(n,2),16)^r,e+=String.fromCharCode(i);e=document.createTextNode(e),c.parentNode.replaceChild(e,c)}}}catch(u){}}();/* ]]&gt; */&lt;/script&gt;\nCodec ID : V_MPEG4/ISO/AVC\nDuration : 1h 37mn\nBit rate : 2 492 Kbps\nNominal bit rate : 2 552 Kbps\nWidth : 1 280 pixels\nHeight : 720 pixels\nDisplay aspect ratio : 16:9\nFrame rate : 23.976 fps\nResolution : 8 bits\nColorimetry : 4:2:0\nScan type : Progressive\nBits/(Pixel*Frame) : 0.113\nStream size : 1.70 GiB (83%)\nAudio #2\nID : 2\nFormat : AC-3\nFormat/Info : Audio Coding 3\nCodec ID : A_AC3\nDuration : 1h 37mn\nBit rate mode : Constant\nBit rate : 448 Kbps\nChannel(s) : 6 channels\nChannel positions : Front: L C R, Surround: L R, LFE\nSampling rate : 48.0 KHz\nStream size : 313 MiB (15%)\n\n\n\n\nScreenshots &lt;a href=&quot;\nhttp://img683.imageshack.us/img683/3315/73639568.png&quot; rel=&quot;nofollow&quot; target=&quot;_NEW&quot;&gt;\nhttp://img683.imageshack.us/img683/3315/73639568.png&lt;/a&gt; &lt;a href=&quot;\nhttp://img530.imageshack.us/img530/6083/wildtargetsreepcmkvsnap.png&quot; rel=&quot;nofollow&quot; target=&quot;_NEW&quot;&gt;\nhttp://img530.imageshack.us/img530/6083/wildtargetsreepcmkvsnap.png&lt;/a&gt; &lt;a href=&quot;\nhttp://img210.imageshack.us/img210/6083/wildtargetsreepcmkvsnap.png&quot; rel=&quot;nofollow&quot; target=&quot;_NEW&quot;&gt;\nhttp://img210.imageshack.us/img210/6083/wildtargetsreepcmkvsnap.png&lt;/a&gt; &lt;a href=&quot;\nhttp://img18.imageshack.us/img18/6083/wildtargetsreepcmkvsnap.png&quot; rel=&quot;nofollow&quot; target=&quot;_NEW&quot;&gt;\nhttp://img18.imageshack.us/img18/6083/wildtargetsreepcmkvsnap.png&lt;/a&gt; &lt;a href=&quot;\nhttp://img413.imageshack.us/img413/6083/wildtargetsreepcmkvsnap.png&quot; rel=&quot;nofollow&quot; target=&quot;_NEW&quot;&gt;\nhttp://img413.imageshack.us/img413/6083/wildtargetsreepcmkvsnap.png&lt;/a&gt; &lt;a href=&quot;\nhttp://img808.imageshack.us/img808/7990/wildtargetsreepcmkvthum.png&quot; rel=&quot;nofollow&quot; target=&quot;_NEW&quot;&gt;\nhttp://img808.imageshack.us/img808/7990/wildtargetsreepcmkvthum.png&lt;/a&gt;","torrent":{"xt":"urn:btih:19f44f4275412d28b5c8f51bec0fb6f06b6e7a45","amp;dn":"Wild+Target+%282010%29+BluRay+720p+x264-SPC+release+","amp;tr":["udp%3A%2F%2Ftracker.openbittorrent.com%3A80","udp%3A%2F%2Fopen.demonii.com%3A1337","udp%3A%2F%2Ftracker.coppersurfer.tk%3A6969","udp%3A%2F%2Fexodus.desync.com%3A6969"],"infoHash":"19f44f4275412d28b5c8f51bec0fb6f06b6e7a45","infoHashBuffer":{"type":"Buffer","data":[25,244,79,66,117,65,45,40,181,200,245,27,236,15,182,240,107,110,122,69]},"announce":[],"urlList":[]}}